<mxfile host="65bd71144e">
    <diagram name="01_トップ（スマホ＋PC）" id="01_トップ（スマホ＋PC）">
        <mxGraphModel dx="1386" dy="779" grid="1" gridSize="10" guides="1" tooltips="1" connect="1" arrows="1" fold="1" page="1" pageScale="1" pageWidth="1654" pageHeight="1169" math="0" shadow="0">
            <root>
                <mxCell id="0"/>
                <mxCell id="1" parent="0"/>
                <mxCell id="p1m_phone" value="" style="rounded=1;whiteSpace=wrap;html=1;strokeColor=#111827;fillColor=#FFFFFF;shadow=0;arcSize=10;" parent="1" vertex="1">
                    <mxGeometry x="60" y="60" width="375" height="812" as="geometry"/>
                </mxCell>
                <mxCell id="p1m_label" value="スマホ" style="whiteSpace=wrap;html=1;strokeColor=none;fillColor=none;" parent="1" vertex="1">
                    <mxGeometry x="60" y="36" width="200" height="20" as="geometry"/>
                </mxCell>
                <mxCell id="p1m_bar" value="" style="whiteSpace=wrap;html=1;strokeColor=#E5E7EB;fillColor=#F9FAFB;rounded=1;arcSize=10;" parent="1" vertex="1">
                    <mxGeometry x="72" y="80" width="350" height="44" as="geometry"/>
                </mxCell>
                <mxCell id="p1m_search" value="🔍 地名・施設名・キーワード" style="whiteSpace=wrap;html=1;strokeColor=#E5E7EB;fillColor=#F9FAFB;rounded=1;arcSize=10;" parent="1" vertex="1">
                    <mxGeometry x="84" y="86" width="326" height="32" as="geometry"/>
                </mxCell>
                <mxCell id="p1m_chip0" value="カテゴリ" style="rounded=1;whiteSpace=wrap;html=1;strokeColor=#CBD5E1;fillColor=#EEF2FF;arcSize=50;fontSize=11;" parent="1" vertex="1">
                    <mxGeometry x="72" y="134" width="68" height="24" as="geometry"/>
                </mxCell>
                <mxCell id="p1m_chip1" value="サービス" style="rounded=1;whiteSpace=wrap;html=1;strokeColor=#CBD5E1;fillColor=#EEF2FF;arcSize=50;fontSize=11;" parent="1" vertex="1">
                    <mxGeometry x="146" y="134" width="68" height="24" as="geometry"/>
                </mxCell>
                <mxCell id="p1m_chip2" value="現在地" style="rounded=1;whiteSpace=wrap;html=1;strokeColor=#CBD5E1;fillColor=#EEF2FF;arcSize=50;fontSize=11;" parent="1" vertex="1">
                    <mxGeometry x="220" y="134" width="68" height="24" as="geometry"/>
                </mxCell>
                <mxCell id="p1m_chip3" value="半径" style="rounded=1;whiteSpace=wrap;html=1;strokeColor=#CBD5E1;fillColor=#EEF2FF;arcSize=50;fontSize=11;" parent="1" vertex="1">
                    <mxGeometry x="294" y="134" width="68" height="24" as="geometry"/>
                </mxCell>
                <mxCell id="p1m_chip4" value="並び替え" style="rounded=1;whiteSpace=wrap;html=1;strokeColor=#CBD5E1;fillColor=#EEF2FF;arcSize=50;fontSize=11;" parent="1" vertex="1">
                    <mxGeometry x="368" y="134" width="68" height="24" as="geometry"/>
                </mxCell>
                <mxCell id="p1m_map" value="地図エリア（ドラッグで移動／この範囲で再検索）" style="whiteSpace=wrap;html=1;strokeColor=#93C5FD;fillColor=#DBEAFE;rounded=1;arcSize=6;" parent="1" vertex="1">
                    <mxGeometry x="72" y="168" width="350" height="250" as="geometry"/>
                </mxCell>
                <mxCell id="p1m_research" value="この範囲で再検索" style="rounded=1;whiteSpace=wrap;html=1;strokeColor=#60A5FA;fillColor=#EFF6FF;arcSize=12;fontColor=#1D4ED8;" parent="1" vertex="1">
                    <mxGeometry x="84" y="178" width="160" height="28" as="geometry"/>
                </mxCell>
                <mxCell id="p1m_item0" value="" style="rounded=1;whiteSpace=wrap;html=1;strokeColor=#E5E7EB;fillColor=#FFFFFF;shadow=0;arcSize=6;" parent="1" vertex="1">
                    <mxGeometry x="72" y="428" width="355" height="92" as="geometry"/>
                </mxCell>
                <mxCell id="p1m_item0_thumb" value="" style="whiteSpace=wrap;html=1;strokeColor=#E5E7EB;fillColor=#F3F4F6;rounded=1;arcSize=6;" parent="1" vertex="1">
                    <mxGeometry x="80" y="436" width="76" height="76" as="geometry"/>
                </mxCell>
                <mxCell id="p1m_item0_name" value="中央公園" style="whiteSpace=wrap;html=1;strokeColor=none;fillColor=none;" parent="1" vertex="1">
                    <mxGeometry x="184" y="436" width="135" height="22" as="geometry"/>
                </mxCell>
                <mxCell id="p1m_item0_rate" value="★4.3（52）" style="rounded=1;whiteSpace=wrap;html=1;strokeColor=#FCD34D;fillColor=#FEF3C7;fontSize=11;arcSize=40;" parent="1" vertex="1">
                    <mxGeometry x="327" y="436" width="92" height="22" as="geometry"/>
                </mxCell>
                <mxCell id="p1m_item0_meta" value="カテゴリ: 公園　距離: 420m" style="whiteSpace=wrap;html=1;strokeColor=none;fillColor=none;" parent="1" vertex="1">
                    <mxGeometry x="184" y="460" width="235" height="18" as="geometry"/>
                </mxCell>
                <mxCell id="p1m_item0_b0" value="授乳室" style="rounded=1;whiteSpace=wrap;html=1;strokeColor=#D1E0FF;fillColor=#EEF4FF;fontSize=10;arcSize=50;" parent="1" vertex="1">
                    <mxGeometry x="184" y="484" width="54" height="20" as="geometry"/>
                </mxCell>
                <mxCell id="p1m_item0_b1" value="おむつ交換台" style="rounded=1;whiteSpace=wrap;html=1;strokeColor=#D1E0FF;fillColor=#EEF4FF;fontSize=10;arcSize=50;" parent="1" vertex="1">
                    <mxGeometry x="244" y="484" width="54" height="20" as="geometry"/>
                </mxCell>
                <mxCell id="p1m_item0_b2" value="ベビーカーOK" style="rounded=1;whiteSpace=wrap;html=1;strokeColor=#D1E0FF;fillColor=#EEF4FF;fontSize=10;arcSize=50;" parent="1" vertex="1">
                    <mxGeometry x="304" y="484" width="54" height="20" as="geometry"/>
                </mxCell>
                <mxCell id="p1m_item0_b3" value="キッズトイレ" style="rounded=1;whiteSpace=wrap;html=1;strokeColor=#D1E0FF;fillColor=#EEF4FF;fontSize=10;arcSize=50;" parent="1" vertex="1">
                    <mxGeometry x="364" y="484" width="54" height="20" as="geometry"/>
                </mxCell>
                <mxCell id="p1m_item1" value="" style="rounded=1;whiteSpace=wrap;html=1;strokeColor=#E5E7EB;fillColor=#FFFFFF;shadow=0;arcSize=6;" parent="1" vertex="1">
                    <mxGeometry x="72" y="532" width="355" height="92" as="geometry"/>
                </mxCell>
                <mxCell id="p1m_item1_thumb" value="" style="whiteSpace=wrap;html=1;strokeColor=#E5E7EB;fillColor=#F3F4F6;rounded=1;arcSize=6;" parent="1" vertex="1">
                    <mxGeometry x="80" y="540" width="76" height="76" as="geometry"/>
                </mxCell>
                <mxCell id="p1m_item1_name" value="中央公園" style="whiteSpace=wrap;html=1;strokeColor=none;fillColor=none;" parent="1" vertex="1">
                    <mxGeometry x="184" y="540" width="135" height="22" as="geometry"/>
                </mxCell>
                <mxCell id="p1m_item1_rate" value="★4.3（52）" style="rounded=1;whiteSpace=wrap;html=1;strokeColor=#FCD34D;fillColor=#FEF3C7;fontSize=11;arcSize=40;" parent="1" vertex="1">
                    <mxGeometry x="327" y="540" width="92" height="22" as="geometry"/>
                </mxCell>
                <mxCell id="p1m_item1_meta" value="カテゴリ: 公園　距離: 420m" style="whiteSpace=wrap;html=1;strokeColor=none;fillColor=none;" parent="1" vertex="1">
                    <mxGeometry x="184" y="564" width="235" height="18" as="geometry"/>
                </mxCell>
                <mxCell id="p1m_item1_b0" value="授乳室" style="rounded=1;whiteSpace=wrap;html=1;strokeColor=#D1E0FF;fillColor=#EEF4FF;fontSize=10;arcSize=50;" parent="1" vertex="1">
                    <mxGeometry x="184" y="588" width="54" height="20" as="geometry"/>
                </mxCell>
                <mxCell id="p1m_item1_b1" value="おむつ交換台" style="rounded=1;whiteSpace=wrap;html=1;strokeColor=#D1E0FF;fillColor=#EEF4FF;fontSize=10;arcSize=50;" parent="1" vertex="1">
                    <mxGeometry x="244" y="588" width="54" height="20" as="geometry"/>
                </mxCell>
                <mxCell id="p1m_item1_b2" value="ベビーカーOK" style="rounded=1;whiteSpace=wrap;html=1;strokeColor=#D1E0FF;fillColor=#EEF4FF;fontSize=10;arcSize=50;" parent="1" vertex="1">
                    <mxGeometry x="304" y="588" width="54" height="20" as="geometry"/>
                </mxCell>
                <mxCell id="p1m_item1_b3" value="キッズトイレ" style="rounded=1;whiteSpace=wrap;html=1;strokeColor=#D1E0FF;fillColor=#EEF4FF;fontSize=10;arcSize=50;" parent="1" vertex="1">
                    <mxGeometry x="364" y="588" width="54" height="20" as="geometry"/>
                </mxCell>
                <mxCell id="p1m_item2" value="" style="rounded=1;whiteSpace=wrap;html=1;strokeColor=#E5E7EB;fillColor=#FFFFFF;shadow=0;arcSize=6;" parent="1" vertex="1">
                    <mxGeometry x="72" y="636" width="355" height="92" as="geometry"/>
                </mxCell>
                <mxCell id="p1m_item2_thumb" value="" style="whiteSpace=wrap;html=1;strokeColor=#E5E7EB;fillColor=#F3F4F6;rounded=1;arcSize=6;" parent="1" vertex="1">
                    <mxGeometry x="80" y="644" width="76" height="76" as="geometry"/>
                </mxCell>
                <mxCell id="p1m_item2_name" value="中央公園" style="whiteSpace=wrap;html=1;strokeColor=none;fillColor=none;" parent="1" vertex="1">
                    <mxGeometry x="184" y="644" width="135" height="22" as="geometry"/>
                </mxCell>
                <mxCell id="p1m_item2_rate" value="★4.3（52）" style="rounded=1;whiteSpace=wrap;html=1;strokeColor=#FCD34D;fillColor=#FEF3C7;fontSize=11;arcSize=40;" parent="1" vertex="1">
                    <mxGeometry x="327" y="644" width="92" height="22" as="geometry"/>
                </mxCell>
                <mxCell id="p1m_item2_meta" value="カテゴリ: 公園　距離: 420m" style="whiteSpace=wrap;html=1;strokeColor=none;fillColor=none;" parent="1" vertex="1">
                    <mxGeometry x="184" y="668" width="235" height="18" as="geometry"/>
                </mxCell>
                <mxCell id="p1m_item2_b0" value="授乳室" style="rounded=1;whiteSpace=wrap;html=1;strokeColor=#D1E0FF;fillColor=#EEF4FF;fontSize=10;arcSize=50;" parent="1" vertex="1">
                    <mxGeometry x="184" y="692" width="54" height="20" as="geometry"/>
                </mxCell>
                <mxCell id="p1m_item2_b1" value="おむつ交換台" style="rounded=1;whiteSpace=wrap;html=1;strokeColor=#D1E0FF;fillColor=#EEF4FF;fontSize=10;arcSize=50;" parent="1" vertex="1">
                    <mxGeometry x="244" y="692" width="54" height="20" as="geometry"/>
                </mxCell>
                <mxCell id="p1m_item2_b2" value="ベビーカーOK" style="rounded=1;whiteSpace=wrap;html=1;strokeColor=#D1E0FF;fillColor=#EEF4FF;fontSize=10;arcSize=50;" parent="1" vertex="1">
                    <mxGeometry x="304" y="692" width="54" height="20" as="geometry"/>
                </mxCell>
                <mxCell id="p1m_item2_b3" value="キッズトイレ" style="rounded=1;whiteSpace=wrap;html=1;strokeColor=#D1E0FF;fillColor=#EEF4FF;fontSize=10;arcSize=50;" parent="1" vertex="1">
                    <mxGeometry x="364" y="692" width="54" height="20" as="geometry"/>
                </mxCell>
                <mxCell id="p1d_desktop" value="" style="rounded=1;whiteSpace=wrap;html=1;strokeColor=#111827;fillColor=#FFFFFF;shadow=0;arcSize=10;" parent="1" vertex="1">
                    <mxGeometry x="500" y="60" width="1000" height="700" as="geometry"/>
                </mxCell>
                <mxCell id="p1d_label" value="PC" style="whiteSpace=wrap;html=1;strokeColor=none;fillColor=none;" parent="1" vertex="1">
                    <mxGeometry x="500" y="36" width="200" height="20" as="geometry"/>
                </mxCell>
                <mxCell id="p1d_bar" value="" style="whiteSpace=wrap;html=1;strokeColor=#E5E7EB;fillColor=#F9FAFB;rounded=1;arcSize=10;" parent="1" vertex="1">
                    <mxGeometry x="512" y="80" width="976" height="48" as="geometry"/>
                </mxCell>
                <mxCell id="p1d_search" value="🔍 地名・施設名・キーワード" style="whiteSpace=wrap;html=1;strokeColor=#E5E7EB;fillColor=#F9FAFB;rounded=1;arcSize=10;" parent="1" vertex="1">
                    <mxGeometry x="524" y="86" width="600" height="36" as="geometry"/>
                </mxCell>
                <mxCell id="p1d_chip0" value="カテゴリ" style="rounded=1;whiteSpace=wrap;html=1;strokeColor=#CBD5E1;fillColor=#EEF2FF;arcSize=50;fontSize=11;" parent="1" vertex="1">
                    <mxGeometry x="524" y="134" width="92" height="26" as="geometry"/>
                </mxCell>
                <mxCell id="p1d_chip1" value="サービス" style="rounded=1;whiteSpace=wrap;html=1;strokeColor=#CBD5E1;fillColor=#EEF2FF;arcSize=50;fontSize=11;" parent="1" vertex="1">
                    <mxGeometry x="624" y="134" width="92" height="26" as="geometry"/>
                </mxCell>
                <mxCell id="p1d_chip2" value="現在地" style="rounded=1;whiteSpace=wrap;html=1;strokeColor=#CBD5E1;fillColor=#EEF2FF;arcSize=50;fontSize=11;" parent="1" vertex="1">
                    <mxGeometry x="724" y="134" width="92" height="26" as="geometry"/>
                </mxCell>
                <mxCell id="p1d_chip3" value="半径" style="rounded=1;whiteSpace=wrap;html=1;strokeColor=#CBD5E1;fillColor=#EEF2FF;arcSize=50;fontSize=11;" parent="1" vertex="1">
                    <mxGeometry x="824" y="134" width="92" height="26" as="geometry"/>
                </mxCell>
                <mxCell id="p1d_chip4" value="並び替え" style="rounded=1;whiteSpace=wrap;html=1;strokeColor=#CBD5E1;fillColor=#EEF2FF;arcSize=50;fontSize=11;" parent="1" vertex="1">
                    <mxGeometry x="924" y="134" width="92" height="26" as="geometry"/>
                </mxCell>
                <mxCell id="p1d_list_frame" value="" style="rounded=1;whiteSpace=wrap;html=1;strokeColor=#E5E7EB;fillColor=#FFFFFF;shadow=0;arcSize=6;" parent="1" vertex="1">
                    <mxGeometry x="512" y="168" width="400" height="568" as="geometry"/>
                </mxCell>
                <mxCell id="p1d_map" value="地図エリア" style="whiteSpace=wrap;html=1;strokeColor=#93C5FD;fillColor=#DBEAFE;rounded=1;arcSize=6;" parent="1" vertex="1">
                    <mxGeometry x="916" y="168" width="572" height="568" as="geometry"/>
                </mxCell>
                <mxCell id="p1d_item0" value="" style="rounded=1;whiteSpace=wrap;html=1;strokeColor=#E5E7EB;fillColor=#FFFFFF;shadow=0;arcSize=6;" parent="1" vertex="1">
                    <mxGeometry x="524" y="180" width="376" height="120" as="geometry"/>
                </mxCell>
                <mxCell id="p1d_item0_thumb" value="" style="whiteSpace=wrap;html=1;strokeColor=#E5E7EB;fillColor=#F3F4F6;rounded=1;arcSize=6;" parent="1" vertex="1">
                    <mxGeometry x="532" y="188" width="96" height="104" as="geometry"/>
                </mxCell>
                <mxCell id="p1d_item0_name" value="中央公園" style="whiteSpace=wrap;html=1;strokeColor=none;fillColor=none;" parent="1" vertex="1">
                    <mxGeometry x="636" y="188" width="156" height="22" as="geometry"/>
                </mxCell>
                <mxCell id="p1d_item0_rate" value="★4.3（52）" style="rounded=1;whiteSpace=wrap;html=1;strokeColor=#FCD34D;fillColor=#FEF3C7;fontSize=11;arcSize=40;" parent="1" vertex="1">
                    <mxGeometry x="800" y="188" width="92" height="22" as="geometry"/>
                </mxCell>
                <mxCell id="p1d_item0_meta" value="カテゴリ: 公園　距離: 420m" style="whiteSpace=wrap;html=1;strokeColor=none;fillColor=none;" parent="1" vertex="1">
                    <mxGeometry x="636" y="212" width="256" height="18" as="geometry"/>
                </mxCell>
                <mxCell id="p1d_item0_b0" value="授乳室" style="rounded=1;whiteSpace=wrap;html=1;strokeColor=#D1E0FF;fillColor=#EEF4FF;fontSize=10;arcSize=50;" parent="1" vertex="1">
                    <mxGeometry x="636" y="264" width="59" height="20" as="geometry"/>
                </mxCell>
                <mxCell id="p1d_item0_b1" value="おむつ交換台" style="rounded=1;whiteSpace=wrap;html=1;strokeColor=#D1E0FF;fillColor=#EEF4FF;fontSize=10;arcSize=50;" parent="1" vertex="1">
                    <mxGeometry x="701" y="264" width="59" height="20" as="geometry"/>
                </mxCell>
                <mxCell id="p1d_item0_b2" value="ベビーカーOK" style="rounded=1;whiteSpace=wrap;html=1;strokeColor=#D1E0FF;fillColor=#EEF4FF;fontSize=10;arcSize=50;" parent="1" vertex="1">
                    <mxGeometry x="766" y="264" width="59" height="20" as="geometry"/>
                </mxCell>
                <mxCell id="p1d_item0_b3" value="キッズトイレ" style="rounded=1;whiteSpace=wrap;html=1;strokeColor=#D1E0FF;fillColor=#EEF4FF;fontSize=10;arcSize=50;" parent="1" vertex="1">
                    <mxGeometry x="831" y="264" width="59" height="20" as="geometry"/>
                </mxCell>
                <mxCell id="p1d_item1" value="" style="rounded=1;whiteSpace=wrap;html=1;strokeColor=#E5E7EB;fillColor=#FFFFFF;shadow=0;arcSize=6;" parent="1" vertex="1">
                    <mxGeometry x="524" y="316" width="376" height="120" as="geometry"/>
                </mxCell>
                <mxCell id="p1d_item1_thumb" value="" style="whiteSpace=wrap;html=1;strokeColor=#E5E7EB;fillColor=#F3F4F6;rounded=1;arcSize=6;" parent="1" vertex="1">
                    <mxGeometry x="532" y="324" width="96" height="104" as="geometry"/>
                </mxCell>
                <mxCell id="p1d_item1_name" value="中央公園" style="whiteSpace=wrap;html=1;strokeColor=none;fillColor=none;" parent="1" vertex="1">
                    <mxGeometry x="636" y="324" width="156" height="22" as="geometry"/>
                </mxCell>
                <mxCell id="p1d_item1_rate" value="★4.3（52）" style="rounded=1;whiteSpace=wrap;html=1;strokeColor=#FCD34D;fillColor=#FEF3C7;fontSize=11;arcSize=40;" parent="1" vertex="1">
                    <mxGeometry x="800" y="324" width="92" height="22" as="geometry"/>
                </mxCell>
                <mxCell id="p1d_item1_meta" value="カテゴリ: 公園　距離: 420m" style="whiteSpace=wrap;html=1;strokeColor=none;fillColor=none;" parent="1" vertex="1">
                    <mxGeometry x="636" y="348" width="256" height="18" as="geometry"/>
                </mxCell>
                <mxCell id="p1d_item1_b0" value="授乳室" style="rounded=1;whiteSpace=wrap;html=1;strokeColor=#D1E0FF;fillColor=#EEF4FF;fontSize=10;arcSize=50;" parent="1" vertex="1">
                    <mxGeometry x="636" y="400" width="59" height="20" as="geometry"/>
                </mxCell>
                <mxCell id="p1d_item1_b1" value="おむつ交換台" style="rounded=1;whiteSpace=wrap;html=1;strokeColor=#D1E0FF;fillColor=#EEF4FF;fontSize=10;arcSize=50;" parent="1" vertex="1">
                    <mxGeometry x="701" y="400" width="59" height="20" as="geometry"/>
                </mxCell>
                <mxCell id="p1d_item1_b2" value="ベビーカーOK" style="rounded=1;whiteSpace=wrap;html=1;strokeColor=#D1E0FF;fillColor=#EEF4FF;fontSize=10;arcSize=50;" parent="1" vertex="1">
                    <mxGeometry x="766" y="400" width="59" height="20" as="geometry"/>
                </mxCell>
                <mxCell id="p1d_item1_b3" value="キッズトイレ" style="rounded=1;whiteSpace=wrap;html=1;strokeColor=#D1E0FF;fillColor=#EEF4FF;fontSize=10;arcSize=50;" parent="1" vertex="1">
                    <mxGeometry x="831" y="400" width="59" height="20" as="geometry"/>
                </mxCell>
                <mxCell id="p1d_item2" value="" style="rounded=1;whiteSpace=wrap;html=1;strokeColor=#E5E7EB;fillColor=#FFFFFF;shadow=0;arcSize=6;" parent="1" vertex="1">
                    <mxGeometry x="524" y="452" width="376" height="120" as="geometry"/>
                </mxCell>
                <mxCell id="p1d_item2_thumb" value="" style="whiteSpace=wrap;html=1;strokeColor=#E5E7EB;fillColor=#F3F4F6;rounded=1;arcSize=6;" parent="1" vertex="1">
                    <mxGeometry x="532" y="460" width="96" height="104" as="geometry"/>
                </mxCell>
                <mxCell id="p1d_item2_name" value="中央公園" style="whiteSpace=wrap;html=1;strokeColor=none;fillColor=none;" parent="1" vertex="1">
                    <mxGeometry x="636" y="460" width="156" height="22" as="geometry"/>
                </mxCell>
                <mxCell id="p1d_item2_rate" value="★4.3（52）" style="rounded=1;whiteSpace=wrap;html=1;strokeColor=#FCD34D;fillColor=#FEF3C7;fontSize=11;arcSize=40;" parent="1" vertex="1">
                    <mxGeometry x="800" y="460" width="92" height="22" as="geometry"/>
                </mxCell>
                <mxCell id="p1d_item2_meta" value="カテゴリ: 公園　距離: 420m" style="whiteSpace=wrap;html=1;strokeColor=none;fillColor=none;" parent="1" vertex="1">
                    <mxGeometry x="636" y="484" width="256" height="18" as="geometry"/>
                </mxCell>
                <mxCell id="p1d_item2_b0" value="授乳室" style="rounded=1;whiteSpace=wrap;html=1;strokeColor=#D1E0FF;fillColor=#EEF4FF;fontSize=10;arcSize=50;" parent="1" vertex="1">
                    <mxGeometry x="636" y="536" width="59" height="20" as="geometry"/>
                </mxCell>
                <mxCell id="p1d_item2_b1" value="おむつ交換台" style="rounded=1;whiteSpace=wrap;html=1;strokeColor=#D1E0FF;fillColor=#EEF4FF;fontSize=10;arcSize=50;" parent="1" vertex="1">
                    <mxGeometry x="701" y="536" width="59" height="20" as="geometry"/>
                </mxCell>
                <mxCell id="p1d_item2_b2" value="ベビーカーOK" style="rounded=1;whiteSpace=wrap;html=1;strokeColor=#D1E0FF;fillColor=#EEF4FF;fontSize=10;arcSize=50;" parent="1" vertex="1">
                    <mxGeometry x="766" y="536" width="59" height="20" as="geometry"/>
                </mxCell>
                <mxCell id="p1d_item2_b3" value="キッズトイレ" style="rounded=1;whiteSpace=wrap;html=1;strokeColor=#D1E0FF;fillColor=#EEF4FF;fontSize=10;arcSize=50;" parent="1" vertex="1">
                    <mxGeometry x="831" y="536" width="59" height="20" as="geometry"/>
                </mxCell>
                <mxCell id="p1d_item3" value="" style="rounded=1;whiteSpace=wrap;html=1;strokeColor=#E5E7EB;fillColor=#FFFFFF;shadow=0;arcSize=6;" parent="1" vertex="1">
                    <mxGeometry x="524" y="588" width="376" height="120" as="geometry"/>
                </mxCell>
                <mxCell id="p1d_item3_thumb" value="" style="whiteSpace=wrap;html=1;strokeColor=#E5E7EB;fillColor=#F3F4F6;rounded=1;arcSize=6;" parent="1" vertex="1">
                    <mxGeometry x="532" y="596" width="96" height="104" as="geometry"/>
                </mxCell>
                <mxCell id="p1d_item3_name" value="中央公園" style="whiteSpace=wrap;html=1;strokeColor=none;fillColor=none;" parent="1" vertex="1">
                    <mxGeometry x="636" y="596" width="156" height="22" as="geometry"/>
                </mxCell>
                <mxCell id="p1d_item3_rate" value="★4.3（52）" style="rounded=1;whiteSpace=wrap;html=1;strokeColor=#FCD34D;fillColor=#FEF3C7;fontSize=11;arcSize=40;" parent="1" vertex="1">
                    <mxGeometry x="800" y="596" width="92" height="22" as="geometry"/>
                </mxCell>
                <mxCell id="p1d_item3_meta" value="カテゴリ: 公園　距離: 420m" style="whiteSpace=wrap;html=1;strokeColor=none;fillColor=none;" parent="1" vertex="1">
                    <mxGeometry x="636" y="620" width="256" height="18" as="geometry"/>
                </mxCell>
                <mxCell id="p1d_item3_b0" value="授乳室" style="rounded=1;whiteSpace=wrap;html=1;strokeColor=#D1E0FF;fillColor=#EEF4FF;fontSize=10;arcSize=50;" parent="1" vertex="1">
                    <mxGeometry x="636" y="672" width="59" height="20" as="geometry"/>
                </mxCell>
                <mxCell id="p1d_item3_b1" value="おむつ交換台" style="rounded=1;whiteSpace=wrap;html=1;strokeColor=#D1E0FF;fillColor=#EEF4FF;fontSize=10;arcSize=50;" parent="1" vertex="1">
                    <mxGeometry x="701" y="672" width="59" height="20" as="geometry"/>
                </mxCell>
                <mxCell id="p1d_item3_b2" value="ベビーカーOK" style="rounded=1;whiteSpace=wrap;html=1;strokeColor=#D1E0FF;fillColor=#EEF4FF;fontSize=10;arcSize=50;" parent="1" vertex="1">
                    <mxGeometry x="766" y="672" width="59" height="20" as="geometry"/>
                </mxCell>
                <mxCell id="p1d_item3_b3" value="キッズトイレ" style="rounded=1;whiteSpace=wrap;html=1;strokeColor=#D1E0FF;fillColor=#EEF4FF;fontSize=10;arcSize=50;" parent="1" vertex="1">
                    <mxGeometry x="831" y="672" width="59" height="20" as="geometry"/>
                </mxCell>
            </root>
        </mxGraphModel>
    </diagram>
    <diagram name="02_検索結果（スマホ＋PC）" id="02_検索結果（スマホ＋PC）">
        <mxGraphModel dx="1386" dy="779" grid="1" gridSize="10" guides="1" tooltips="1" connect="1" arrows="1" fold="1" page="1" pageScale="1" pageWidth="1654" pageHeight="1169" math="0" shadow="0">
            <root>
                <mxCell id="0"/>
                <mxCell id="1" parent="0"/>
                <mxCell id="p2m_phone" value="" style="rounded=1;whiteSpace=wrap;html=1;strokeColor=#111827;fillColor=#FFFFFF;shadow=0;arcSize=10;" parent="1" vertex="1">
                    <mxGeometry x="60" y="60" width="375" height="812" as="geometry"/>
                </mxCell>
                <mxCell id="p2m_label" value="スマホ" style="whiteSpace=wrap;html=1;strokeColor=none;fillColor=none;" parent="1" vertex="1">
                    <mxGeometry x="60" y="36" width="200" height="20" as="geometry"/>
                </mxCell>
                <mxCell id="p2m_bar" value="" style="whiteSpace=wrap;html=1;strokeColor=#E5E7EB;fillColor=#F9FAFB;rounded=1;arcSize=10;" parent="1" vertex="1">
                    <mxGeometry x="72" y="80" width="350" height="44" as="geometry"/>
                </mxCell>
                <mxCell id="p2m_search" value="東京駅 × 授乳室＋おむつ交換台" style="whiteSpace=wrap;html=1;strokeColor=#E5E7EB;fillColor=#F9FAFB;rounded=1;arcSize=10;" parent="1" vertex="1">
                    <mxGeometry x="84" y="86" width="326" height="32" as="geometry"/>
                </mxCell>
                <mxCell id="p2m_filter" value="フィルタ適用中：授乳室 / おむつ交換台 / 距離順" style="whiteSpace=wrap;html=1;strokeColor=none;fillColor=none;" parent="1" vertex="1">
                    <mxGeometry x="72" y="134" width="350" height="24" as="geometry"/>
                </mxCell>
                <mxCell id="p2m_item0" value="" style="rounded=1;whiteSpace=wrap;html=1;strokeColor=#E5E7EB;fillColor=#FFFFFF;shadow=0;arcSize=6;" parent="1" vertex="1">
                    <mxGeometry x="72" y="168" width="355" height="92" as="geometry"/>
                </mxCell>
                <mxCell id="p2m_item0_thumb" value="" style="whiteSpace=wrap;html=1;strokeColor=#E5E7EB;fillColor=#F3F4F6;rounded=1;arcSize=6;" parent="1" vertex="1">
                    <mxGeometry x="80" y="176" width="76" height="76" as="geometry"/>
                </mxCell>
                <mxCell id="p2m_item0_name" value="中央公園" style="whiteSpace=wrap;html=1;strokeColor=none;fillColor=none;" parent="1" vertex="1">
                    <mxGeometry x="184" y="176" width="135" height="22" as="geometry"/>
                </mxCell>
                <mxCell id="p2m_item0_rate" value="★4.3（52）" style="rounded=1;whiteSpace=wrap;html=1;strokeColor=#FCD34D;fillColor=#FEF3C7;fontSize=11;arcSize=40;" parent="1" vertex="1">
                    <mxGeometry x="327" y="176" width="92" height="22" as="geometry"/>
                </mxCell>
                <mxCell id="p2m_item0_meta" value="カテゴリ: 公園　距離: 420m" style="whiteSpace=wrap;html=1;strokeColor=none;fillColor=none;" parent="1" vertex="1">
                    <mxGeometry x="184" y="200" width="235" height="18" as="geometry"/>
                </mxCell>
                <mxCell id="p2m_item0_b0" value="授乳室" style="rounded=1;whiteSpace=wrap;html=1;strokeColor=#D1E0FF;fillColor=#EEF4FF;fontSize=10;arcSize=50;" parent="1" vertex="1">
                    <mxGeometry x="184" y="224" width="54" height="20" as="geometry"/>
                </mxCell>
                <mxCell id="p2m_item0_b1" value="おむつ交換台" style="rounded=1;whiteSpace=wrap;html=1;strokeColor=#D1E0FF;fillColor=#EEF4FF;fontSize=10;arcSize=50;" parent="1" vertex="1">
                    <mxGeometry x="244" y="224" width="54" height="20" as="geometry"/>
                </mxCell>
                <mxCell id="p2m_item0_b2" value="ベビーカーOK" style="rounded=1;whiteSpace=wrap;html=1;strokeColor=#D1E0FF;fillColor=#EEF4FF;fontSize=10;arcSize=50;" parent="1" vertex="1">
                    <mxGeometry x="304" y="224" width="54" height="20" as="geometry"/>
                </mxCell>
                <mxCell id="p2m_item0_b3" value="キッズトイレ" style="rounded=1;whiteSpace=wrap;html=1;strokeColor=#D1E0FF;fillColor=#EEF4FF;fontSize=10;arcSize=50;" parent="1" vertex="1">
                    <mxGeometry x="364" y="224" width="54" height="20" as="geometry"/>
                </mxCell>
                <mxCell id="p2m_item1" value="" style="rounded=1;whiteSpace=wrap;html=1;strokeColor=#E5E7EB;fillColor=#FFFFFF;shadow=0;arcSize=6;" parent="1" vertex="1">
                    <mxGeometry x="72" y="272" width="355" height="92" as="geometry"/>
                </mxCell>
                <mxCell id="p2m_item1_thumb" value="" style="whiteSpace=wrap;html=1;strokeColor=#E5E7EB;fillColor=#F3F4F6;rounded=1;arcSize=6;" parent="1" vertex="1">
                    <mxGeometry x="80" y="280" width="76" height="76" as="geometry"/>
                </mxCell>
                <mxCell id="p2m_item1_name" value="中央公園" style="whiteSpace=wrap;html=1;strokeColor=none;fillColor=none;" parent="1" vertex="1">
                    <mxGeometry x="184" y="280" width="135" height="22" as="geometry"/>
                </mxCell>
                <mxCell id="p2m_item1_rate" value="★4.3（52）" style="rounded=1;whiteSpace=wrap;html=1;strokeColor=#FCD34D;fillColor=#FEF3C7;fontSize=11;arcSize=40;" parent="1" vertex="1">
                    <mxGeometry x="327" y="280" width="92" height="22" as="geometry"/>
                </mxCell>
                <mxCell id="p2m_item1_meta" value="カテゴリ: 公園　距離: 420m" style="whiteSpace=wrap;html=1;strokeColor=none;fillColor=none;" parent="1" vertex="1">
                    <mxGeometry x="184" y="304" width="235" height="18" as="geometry"/>
                </mxCell>
                <mxCell id="p2m_item1_b0" value="授乳室" style="rounded=1;whiteSpace=wrap;html=1;strokeColor=#D1E0FF;fillColor=#EEF4FF;fontSize=10;arcSize=50;" parent="1" vertex="1">
                    <mxGeometry x="184" y="328" width="54" height="20" as="geometry"/>
                </mxCell>
                <mxCell id="p2m_item1_b1" value="おむつ交換台" style="rounded=1;whiteSpace=wrap;html=1;strokeColor=#D1E0FF;fillColor=#EEF4FF;fontSize=10;arcSize=50;" parent="1" vertex="1">
                    <mxGeometry x="244" y="328" width="54" height="20" as="geometry"/>
                </mxCell>
                <mxCell id="p2m_item1_b2" value="ベビーカーOK" style="rounded=1;whiteSpace=wrap;html=1;strokeColor=#D1E0FF;fillColor=#EEF4FF;fontSize=10;arcSize=50;" parent="1" vertex="1">
                    <mxGeometry x="304" y="328" width="54" height="20" as="geometry"/>
                </mxCell>
                <mxCell id="p2m_item1_b3" value="キッズトイレ" style="rounded=1;whiteSpace=wrap;html=1;strokeColor=#D1E0FF;fillColor=#EEF4FF;fontSize=10;arcSize=50;" parent="1" vertex="1">
                    <mxGeometry x="364" y="328" width="54" height="20" as="geometry"/>
                </mxCell>
                <mxCell id="p2m_item2" value="" style="rounded=1;whiteSpace=wrap;html=1;strokeColor=#E5E7EB;fillColor=#FFFFFF;shadow=0;arcSize=6;" parent="1" vertex="1">
                    <mxGeometry x="72" y="376" width="355" height="92" as="geometry"/>
                </mxCell>
                <mxCell id="p2m_item2_thumb" value="" style="whiteSpace=wrap;html=1;strokeColor=#E5E7EB;fillColor=#F3F4F6;rounded=1;arcSize=6;" parent="1" vertex="1">
                    <mxGeometry x="80" y="384" width="76" height="76" as="geometry"/>
                </mxCell>
                <mxCell id="p2m_item2_name" value="中央公園" style="whiteSpace=wrap;html=1;strokeColor=none;fillColor=none;" parent="1" vertex="1">
                    <mxGeometry x="184" y="384" width="135" height="22" as="geometry"/>
                </mxCell>
                <mxCell id="p2m_item2_rate" value="★4.3（52）" style="rounded=1;whiteSpace=wrap;html=1;strokeColor=#FCD34D;fillColor=#FEF3C7;fontSize=11;arcSize=40;" parent="1" vertex="1">
                    <mxGeometry x="327" y="384" width="92" height="22" as="geometry"/>
                </mxCell>
                <mxCell id="p2m_item2_meta" value="カテゴリ: 公園　距離: 420m" style="whiteSpace=wrap;html=1;strokeColor=none;fillColor=none;" parent="1" vertex="1">
                    <mxGeometry x="184" y="408" width="235" height="18" as="geometry"/>
                </mxCell>
                <mxCell id="p2m_item2_b0" value="授乳室" style="rounded=1;whiteSpace=wrap;html=1;strokeColor=#D1E0FF;fillColor=#EEF4FF;fontSize=10;arcSize=50;" parent="1" vertex="1">
                    <mxGeometry x="184" y="432" width="54" height="20" as="geometry"/>
                </mxCell>
                <mxCell id="p2m_item2_b1" value="おむつ交換台" style="rounded=1;whiteSpace=wrap;html=1;strokeColor=#D1E0FF;fillColor=#EEF4FF;fontSize=10;arcSize=50;" parent="1" vertex="1">
                    <mxGeometry x="244" y="432" width="54" height="20" as="geometry"/>
                </mxCell>
                <mxCell id="p2m_item2_b2" value="ベビーカーOK" style="rounded=1;whiteSpace=wrap;html=1;strokeColor=#D1E0FF;fillColor=#EEF4FF;fontSize=10;arcSize=50;" parent="1" vertex="1">
                    <mxGeometry x="304" y="432" width="54" height="20" as="geometry"/>
                </mxCell>
                <mxCell id="p2m_item2_b3" value="キッズトイレ" style="rounded=1;whiteSpace=wrap;html=1;strokeColor=#D1E0FF;fillColor=#EEF4FF;fontSize=10;arcSize=50;" parent="1" vertex="1">
                    <mxGeometry x="364" y="432" width="54" height="20" as="geometry"/>
                </mxCell>
                <mxCell id="p2m_item3" value="" style="rounded=1;whiteSpace=wrap;html=1;strokeColor=#E5E7EB;fillColor=#FFFFFF;shadow=0;arcSize=6;" parent="1" vertex="1">
                    <mxGeometry x="72" y="480" width="355" height="92" as="geometry"/>
                </mxCell>
                <mxCell id="p2m_item3_thumb" value="" style="whiteSpace=wrap;html=1;strokeColor=#E5E7EB;fillColor=#F3F4F6;rounded=1;arcSize=6;" parent="1" vertex="1">
                    <mxGeometry x="80" y="488" width="76" height="76" as="geometry"/>
                </mxCell>
                <mxCell id="p2m_item3_name" value="中央公園" style="whiteSpace=wrap;html=1;strokeColor=none;fillColor=none;" parent="1" vertex="1">
                    <mxGeometry x="184" y="488" width="135" height="22" as="geometry"/>
                </mxCell>
                <mxCell id="p2m_item3_rate" value="★4.3（52）" style="rounded=1;whiteSpace=wrap;html=1;strokeColor=#FCD34D;fillColor=#FEF3C7;fontSize=11;arcSize=40;" parent="1" vertex="1">
                    <mxGeometry x="327" y="488" width="92" height="22" as="geometry"/>
                </mxCell>
                <mxCell id="p2m_item3_meta" value="カテゴリ: 公園　距離: 420m" style="whiteSpace=wrap;html=1;strokeColor=none;fillColor=none;" parent="1" vertex="1">
                    <mxGeometry x="184" y="512" width="235" height="18" as="geometry"/>
                </mxCell>
                <mxCell id="p2m_item3_b0" value="授乳室" style="rounded=1;whiteSpace=wrap;html=1;strokeColor=#D1E0FF;fillColor=#EEF4FF;fontSize=10;arcSize=50;" parent="1" vertex="1">
                    <mxGeometry x="184" y="536" width="54" height="20" as="geometry"/>
                </mxCell>
                <mxCell id="p2m_item3_b1" value="おむつ交換台" style="rounded=1;whiteSpace=wrap;html=1;strokeColor=#D1E0FF;fillColor=#EEF4FF;fontSize=10;arcSize=50;" parent="1" vertex="1">
                    <mxGeometry x="244" y="536" width="54" height="20" as="geometry"/>
                </mxCell>
                <mxCell id="p2m_item3_b2" value="ベビーカーOK" style="rounded=1;whiteSpace=wrap;html=1;strokeColor=#D1E0FF;fillColor=#EEF4FF;fontSize=10;arcSize=50;" parent="1" vertex="1">
                    <mxGeometry x="304" y="536" width="54" height="20" as="geometry"/>
                </mxCell>
                <mxCell id="p2m_item3_b3" value="キッズトイレ" style="rounded=1;whiteSpace=wrap;html=1;strokeColor=#D1E0FF;fillColor=#EEF4FF;fontSize=10;arcSize=50;" parent="1" vertex="1">
                    <mxGeometry x="364" y="536" width="54" height="20" as="geometry"/>
                </mxCell>
                <mxCell id="p2d_desktop" value="" style="rounded=1;whiteSpace=wrap;html=1;strokeColor=#111827;fillColor=#FFFFFF;shadow=0;arcSize=10;" parent="1" vertex="1">
                    <mxGeometry x="500" y="60" width="1000" height="700" as="geometry"/>
                </mxCell>
                <mxCell id="p2d_label" value="PC" style="whiteSpace=wrap;html=1;strokeColor=none;fillColor=none;" parent="1" vertex="1">
                    <mxGeometry x="500" y="36" width="200" height="20" as="geometry"/>
                </mxCell>
                <mxCell id="p2d_bar" value="" style="whiteSpace=wrap;html=1;strokeColor=#E5E7EB;fillColor=#F9FAFB;rounded=1;arcSize=10;" parent="1" vertex="1">
                    <mxGeometry x="512" y="80" width="976" height="48" as="geometry"/>
                </mxCell>
                <mxCell id="p2d_search" value="東京駅 × 授乳室＋おむつ交換台" style="whiteSpace=wrap;html=1;strokeColor=#E5E7EB;fillColor=#F9FAFB;rounded=1;arcSize=10;" parent="1" vertex="1">
                    <mxGeometry x="524" y="86" width="600" height="36" as="geometry"/>
                </mxCell>
                <mxCell id="p2d_filter" value="フィルタ適用中：授乳室 / おむつ交換台 / 距離順" style="whiteSpace=wrap;html=1;strokeColor=none;fillColor=none;" parent="1" vertex="1">
                    <mxGeometry x="512" y="134" width="976" height="24" as="geometry"/>
                </mxCell>
                <mxCell id="p2d_list_frame" value="" style="rounded=1;whiteSpace=wrap;html=1;strokeColor=#E5E7EB;fillColor=#FFFFFF;shadow=0;arcSize=6;" parent="1" vertex="1">
                    <mxGeometry x="512" y="168" width="976" height="568" as="geometry"/>
                </mxCell>
                <mxCell id="p2d_item0" value="" style="rounded=1;whiteSpace=wrap;html=1;strokeColor=#E5E7EB;fillColor=#FFFFFF;shadow=0;arcSize=6;" parent="1" vertex="1">
                    <mxGeometry x="524" y="180" width="952" height="80" as="geometry"/>
                </mxCell>
                <mxCell id="p2d_item0_thumb" value="" style="whiteSpace=wrap;html=1;strokeColor=#E5E7EB;fillColor=#F3F4F6;rounded=1;arcSize=6;" parent="1" vertex="1">
                    <mxGeometry x="532" y="188" width="64" height="64" as="geometry"/>
                </mxCell>
                <mxCell id="p2d_item0_name" value="中央公園" style="whiteSpace=wrap;html=1;strokeColor=none;fillColor=none;" parent="1" vertex="1">
                    <mxGeometry x="636" y="188" width="732" height="22" as="geometry"/>
                </mxCell>
                <mxCell id="p2d_item0_rate" value="★4.3（52）" style="rounded=1;whiteSpace=wrap;html=1;strokeColor=#FCD34D;fillColor=#FEF3C7;fontSize=11;arcSize=40;" parent="1" vertex="1">
                    <mxGeometry x="1376" y="188" width="92" height="22" as="geometry"/>
                </mxCell>
                <mxCell id="p2d_item0_meta" value="カテゴリ: 公園　距離: 420m" style="whiteSpace=wrap;html=1;strokeColor=none;fillColor=none;" parent="1" vertex="1">
                    <mxGeometry x="636" y="212" width="832" height="18" as="geometry"/>
                </mxCell>
                <mxCell id="p2d_item0_b0" value="授乳室" style="rounded=1;whiteSpace=wrap;html=1;strokeColor=#D1E0FF;fillColor=#EEF4FF;fontSize=10;arcSize=50;" parent="1" vertex="1">
                    <mxGeometry x="636" y="224" width="203" height="20" as="geometry"/>
                </mxCell>
                <mxCell id="p2d_item0_b1" value="おむつ交換台" style="rounded=1;whiteSpace=wrap;html=1;strokeColor=#D1E0FF;fillColor=#EEF4FF;fontSize=10;arcSize=50;" parent="1" vertex="1">
                    <mxGeometry x="845" y="224" width="203" height="20" as="geometry"/>
                </mxCell>
                <mxCell id="p2d_item0_b2" value="ベビーカーOK" style="rounded=1;whiteSpace=wrap;html=1;strokeColor=#D1E0FF;fillColor=#EEF4FF;fontSize=10;arcSize=50;" parent="1" vertex="1">
                    <mxGeometry x="1054" y="224" width="203" height="20" as="geometry"/>
                </mxCell>
                <mxCell id="p2d_item0_b3" value="キッズトイレ" style="rounded=1;whiteSpace=wrap;html=1;strokeColor=#D1E0FF;fillColor=#EEF4FF;fontSize=10;arcSize=50;" parent="1" vertex="1">
                    <mxGeometry x="1263" y="224" width="203" height="20" as="geometry"/>
                </mxCell>
                <mxCell id="p2d_item1" value="" style="rounded=1;whiteSpace=wrap;html=1;strokeColor=#E5E7EB;fillColor=#FFFFFF;shadow=0;arcSize=6;" parent="1" vertex="1">
                    <mxGeometry x="524" y="272" width="952" height="80" as="geometry"/>
                </mxCell>
                <mxCell id="p2d_item1_thumb" value="" style="whiteSpace=wrap;html=1;strokeColor=#E5E7EB;fillColor=#F3F4F6;rounded=1;arcSize=6;" parent="1" vertex="1">
                    <mxGeometry x="532" y="280" width="64" height="64" as="geometry"/>
                </mxCell>
                <mxCell id="p2d_item1_name" value="中央公園" style="whiteSpace=wrap;html=1;strokeColor=none;fillColor=none;" parent="1" vertex="1">
                    <mxGeometry x="636" y="280" width="732" height="22" as="geometry"/>
                </mxCell>
                <mxCell id="p2d_item1_rate" value="★4.3（52）" style="rounded=1;whiteSpace=wrap;html=1;strokeColor=#FCD34D;fillColor=#FEF3C7;fontSize=11;arcSize=40;" parent="1" vertex="1">
                    <mxGeometry x="1376" y="280" width="92" height="22" as="geometry"/>
                </mxCell>
                <mxCell id="p2d_item1_meta" value="カテゴリ: 公園　距離: 420m" style="whiteSpace=wrap;html=1;strokeColor=none;fillColor=none;" parent="1" vertex="1">
                    <mxGeometry x="636" y="304" width="832" height="18" as="geometry"/>
                </mxCell>
                <mxCell id="p2d_item1_b0" value="授乳室" style="rounded=1;whiteSpace=wrap;html=1;strokeColor=#D1E0FF;fillColor=#EEF4FF;fontSize=10;arcSize=50;" parent="1" vertex="1">
                    <mxGeometry x="636" y="316" width="203" height="20" as="geometry"/>
                </mxCell>
                <mxCell id="p2d_item1_b1" value="おむつ交換台" style="rounded=1;whiteSpace=wrap;html=1;strokeColor=#D1E0FF;fillColor=#EEF4FF;fontSize=10;arcSize=50;" parent="1" vertex="1">
                    <mxGeometry x="845" y="316" width="203" height="20" as="geometry"/>
                </mxCell>
                <mxCell id="p2d_item1_b2" value="ベビーカーOK" style="rounded=1;whiteSpace=wrap;html=1;strokeColor=#D1E0FF;fillColor=#EEF4FF;fontSize=10;arcSize=50;" parent="1" vertex="1">
                    <mxGeometry x="1054" y="316" width="203" height="20" as="geometry"/>
                </mxCell>
                <mxCell id="p2d_item1_b3" value="キッズトイレ" style="rounded=1;whiteSpace=wrap;html=1;strokeColor=#D1E0FF;fillColor=#EEF4FF;fontSize=10;arcSize=50;" parent="1" vertex="1">
                    <mxGeometry x="1263" y="316" width="203" height="20" as="geometry"/>
                </mxCell>
                <mxCell id="p2d_item2" value="" style="rounded=1;whiteSpace=wrap;html=1;strokeColor=#E5E7EB;fillColor=#FFFFFF;shadow=0;arcSize=6;" parent="1" vertex="1">
                    <mxGeometry x="524" y="364" width="952" height="80" as="geometry"/>
                </mxCell>
                <mxCell id="p2d_item2_thumb" value="" style="whiteSpace=wrap;html=1;strokeColor=#E5E7EB;fillColor=#F3F4F6;rounded=1;arcSize=6;" parent="1" vertex="1">
                    <mxGeometry x="532" y="372" width="64" height="64" as="geometry"/>
                </mxCell>
                <mxCell id="p2d_item2_name" value="中央公園" style="whiteSpace=wrap;html=1;strokeColor=none;fillColor=none;" parent="1" vertex="1">
                    <mxGeometry x="636" y="372" width="732" height="22" as="geometry"/>
                </mxCell>
                <mxCell id="p2d_item2_rate" value="★4.3（52）" style="rounded=1;whiteSpace=wrap;html=1;strokeColor=#FCD34D;fillColor=#FEF3C7;fontSize=11;arcSize=40;" parent="1" vertex="1">
                    <mxGeometry x="1376" y="372" width="92" height="22" as="geometry"/>
                </mxCell>
                <mxCell id="p2d_item2_meta" value="カテゴリ: 公園　距離: 420m" style="whiteSpace=wrap;html=1;strokeColor=none;fillColor=none;" parent="1" vertex="1">
                    <mxGeometry x="636" y="396" width="832" height="18" as="geometry"/>
                </mxCell>
                <mxCell id="p2d_item2_b0" value="授乳室" style="rounded=1;whiteSpace=wrap;html=1;strokeColor=#D1E0FF;fillColor=#EEF4FF;fontSize=10;arcSize=50;" parent="1" vertex="1">
                    <mxGeometry x="636" y="408" width="203" height="20" as="geometry"/>
                </mxCell>
                <mxCell id="p2d_item2_b1" value="おむつ交換台" style="rounded=1;whiteSpace=wrap;html=1;strokeColor=#D1E0FF;fillColor=#EEF4FF;fontSize=10;arcSize=50;" parent="1" vertex="1">
                    <mxGeometry x="845" y="408" width="203" height="20" as="geometry"/>
                </mxCell>
                <mxCell id="p2d_item2_b2" value="ベビーカーOK" style="rounded=1;whiteSpace=wrap;html=1;strokeColor=#D1E0FF;fillColor=#EEF4FF;fontSize=10;arcSize=50;" parent="1" vertex="1">
                    <mxGeometry x="1054" y="408" width="203" height="20" as="geometry"/>
                </mxCell>
                <mxCell id="p2d_item2_b3" value="キッズトイレ" style="rounded=1;whiteSpace=wrap;html=1;strokeColor=#D1E0FF;fillColor=#EEF4FF;fontSize=10;arcSize=50;" parent="1" vertex="1">
                    <mxGeometry x="1263" y="408" width="203" height="20" as="geometry"/>
                </mxCell>
                <mxCell id="p2d_item3" value="" style="rounded=1;whiteSpace=wrap;html=1;strokeColor=#E5E7EB;fillColor=#FFFFFF;shadow=0;arcSize=6;" parent="1" vertex="1">
                    <mxGeometry x="524" y="456" width="952" height="80" as="geometry"/>
                </mxCell>
                <mxCell id="p2d_item3_thumb" value="" style="whiteSpace=wrap;html=1;strokeColor=#E5E7EB;fillColor=#F3F4F6;rounded=1;arcSize=6;" parent="1" vertex="1">
                    <mxGeometry x="532" y="464" width="64" height="64" as="geometry"/>
                </mxCell>
                <mxCell id="p2d_item3_name" value="中央公園" style="whiteSpace=wrap;html=1;strokeColor=none;fillColor=none;" parent="1" vertex="1">
                    <mxGeometry x="636" y="464" width="732" height="22" as="geometry"/>
                </mxCell>
                <mxCell id="p2d_item3_rate" value="★4.3（52）" style="rounded=1;whiteSpace=wrap;html=1;strokeColor=#FCD34D;fillColor=#FEF3C7;fontSize=11;arcSize=40;" parent="1" vertex="1">
                    <mxGeometry x="1376" y="464" width="92" height="22" as="geometry"/>
                </mxCell>
                <mxCell id="p2d_item3_meta" value="カテゴリ: 公園　距離: 420m" style="whiteSpace=wrap;html=1;strokeColor=none;fillColor=none;" parent="1" vertex="1">
                    <mxGeometry x="636" y="488" width="832" height="18" as="geometry"/>
                </mxCell>
                <mxCell id="p2d_item3_b0" value="授乳室" style="rounded=1;whiteSpace=wrap;html=1;strokeColor=#D1E0FF;fillColor=#EEF4FF;fontSize=10;arcSize=50;" parent="1" vertex="1">
                    <mxGeometry x="636" y="500" width="203" height="20" as="geometry"/>
                </mxCell>
                <mxCell id="p2d_item3_b1" value="おむつ交換台" style="rounded=1;whiteSpace=wrap;html=1;strokeColor=#D1E0FF;fillColor=#EEF4FF;fontSize=10;arcSize=50;" parent="1" vertex="1">
                    <mxGeometry x="845" y="500" width="203" height="20" as="geometry"/>
                </mxCell>
                <mxCell id="p2d_item3_b2" value="ベビーカーOK" style="rounded=1;whiteSpace=wrap;html=1;strokeColor=#D1E0FF;fillColor=#EEF4FF;fontSize=10;arcSize=50;" parent="1" vertex="1">
                    <mxGeometry x="1054" y="500" width="203" height="20" as="geometry"/>
                </mxCell>
                <mxCell id="p2d_item3_b3" value="キッズトイレ" style="rounded=1;whiteSpace=wrap;html=1;strokeColor=#D1E0FF;fillColor=#EEF4FF;fontSize=10;arcSize=50;" parent="1" vertex="1">
                    <mxGeometry x="1263" y="500" width="203" height="20" as="geometry"/>
                </mxCell>
                <mxCell id="p2d_item4" value="" style="rounded=1;whiteSpace=wrap;html=1;strokeColor=#E5E7EB;fillColor=#FFFFFF;shadow=0;arcSize=6;" parent="1" vertex="1">
                    <mxGeometry x="524" y="548" width="952" height="80" as="geometry"/>
                </mxCell>
                <mxCell id="p2d_item4_thumb" value="" style="whiteSpace=wrap;html=1;strokeColor=#E5E7EB;fillColor=#F3F4F6;rounded=1;arcSize=6;" parent="1" vertex="1">
                    <mxGeometry x="532" y="556" width="64" height="64" as="geometry"/>
                </mxCell>
                <mxCell id="p2d_item4_name" value="中央公園" style="whiteSpace=wrap;html=1;strokeColor=none;fillColor=none;" parent="1" vertex="1">
                    <mxGeometry x="636" y="556" width="732" height="22" as="geometry"/>
                </mxCell>
                <mxCell id="p2d_item4_rate" value="★4.3（52）" style="rounded=1;whiteSpace=wrap;html=1;strokeColor=#FCD34D;fillColor=#FEF3C7;fontSize=11;arcSize=40;" parent="1" vertex="1">
                    <mxGeometry x="1376" y="556" width="92" height="22" as="geometry"/>
                </mxCell>
                <mxCell id="p2d_item4_meta" value="カテゴリ: 公園　距離: 420m" style="whiteSpace=wrap;html=1;strokeColor=none;fillColor=none;" parent="1" vertex="1">
                    <mxGeometry x="636" y="580" width="832" height="18" as="geometry"/>
                </mxCell>
                <mxCell id="p2d_item4_b0" value="授乳室" style="rounded=1;whiteSpace=wrap;html=1;strokeColor=#D1E0FF;fillColor=#EEF4FF;fontSize=10;arcSize=50;" parent="1" vertex="1">
                    <mxGeometry x="636" y="592" width="203" height="20" as="geometry"/>
                </mxCell>
                <mxCell id="p2d_item4_b1" value="おむつ交換台" style="rounded=1;whiteSpace=wrap;html=1;strokeColor=#D1E0FF;fillColor=#EEF4FF;fontSize=10;arcSize=50;" parent="1" vertex="1">
                    <mxGeometry x="845" y="592" width="203" height="20" as="geometry"/>
                </mxCell>
                <mxCell id="p2d_item4_b2" value="ベビーカーOK" style="rounded=1;whiteSpace=wrap;html=1;strokeColor=#D1E0FF;fillColor=#EEF4FF;fontSize=10;arcSize=50;" parent="1" vertex="1">
                    <mxGeometry x="1054" y="592" width="203" height="20" as="geometry"/>
                </mxCell>
                <mxCell id="p2d_item4_b3" value="キッズトイレ" style="rounded=1;whiteSpace=wrap;html=1;strokeColor=#D1E0FF;fillColor=#EEF4FF;fontSize=10;arcSize=50;" parent="1" vertex="1">
                    <mxGeometry x="1263" y="592" width="203" height="20" as="geometry"/>
                </mxCell>
                <mxCell id="p2d_item5" value="" style="rounded=1;whiteSpace=wrap;html=1;strokeColor=#E5E7EB;fillColor=#FFFFFF;shadow=0;arcSize=6;" parent="1" vertex="1">
                    <mxGeometry x="524" y="640" width="952" height="80" as="geometry"/>
                </mxCell>
                <mxCell id="p2d_item5_thumb" value="" style="whiteSpace=wrap;html=1;strokeColor=#E5E7EB;fillColor=#F3F4F6;rounded=1;arcSize=6;" parent="1" vertex="1">
                    <mxGeometry x="532" y="648" width="64" height="64" as="geometry"/>
                </mxCell>
                <mxCell id="p2d_item5_name" value="中央公園" style="whiteSpace=wrap;html=1;strokeColor=none;fillColor=none;" parent="1" vertex="1">
                    <mxGeometry x="636" y="648" width="732" height="22" as="geometry"/>
                </mxCell>
                <mxCell id="p2d_item5_rate" value="★4.3（52）" style="rounded=1;whiteSpace=wrap;html=1;strokeColor=#FCD34D;fillColor=#FEF3C7;fontSize=11;arcSize=40;" parent="1" vertex="1">
                    <mxGeometry x="1376" y="648" width="92" height="22" as="geometry"/>
                </mxCell>
                <mxCell id="p2d_item5_meta" value="カテゴリ: 公園　距離: 420m" style="whiteSpace=wrap;html=1;strokeColor=none;fillColor=none;" parent="1" vertex="1">
                    <mxGeometry x="636" y="672" width="832" height="18" as="geometry"/>
                </mxCell>
                <mxCell id="p2d_item5_b0" value="授乳室" style="rounded=1;whiteSpace=wrap;html=1;strokeColor=#D1E0FF;fillColor=#EEF4FF;fontSize=10;arcSize=50;" parent="1" vertex="1">
                    <mxGeometry x="636" y="684" width="203" height="20" as="geometry"/>
                </mxCell>
                <mxCell id="p2d_item5_b1" value="おむつ交換台" style="rounded=1;whiteSpace=wrap;html=1;strokeColor=#D1E0FF;fillColor=#EEF4FF;fontSize=10;arcSize=50;" parent="1" vertex="1">
                    <mxGeometry x="845" y="684" width="203" height="20" as="geometry"/>
                </mxCell>
                <mxCell id="p2d_item5_b2" value="ベビーカーOK" style="rounded=1;whiteSpace=wrap;html=1;strokeColor=#D1E0FF;fillColor=#EEF4FF;fontSize=10;arcSize=50;" parent="1" vertex="1">
                    <mxGeometry x="1054" y="684" width="203" height="20" as="geometry"/>
                </mxCell>
                <mxCell id="p2d_item5_b3" value="キッズトイレ" style="rounded=1;whiteSpace=wrap;html=1;strokeColor=#D1E0FF;fillColor=#EEF4FF;fontSize=10;arcSize=50;" parent="1" vertex="1">
                    <mxGeometry x="1263" y="684" width="203" height="20" as="geometry"/>
                </mxCell>
            </root>
        </mxGraphModel>
    </diagram>
    <diagram name="03_施設詳細（スマホ＋PC）" id="03_施設詳細（スマホ＋PC）">
        <mxGraphModel dx="1434" dy="823" grid="1" gridSize="10" guides="1" tooltips="1" connect="1" arrows="1" fold="1" page="1" pageScale="1" pageWidth="1654" pageHeight="1169" math="0" shadow="0">
            <root>
                <mxCell id="0"/>
                <mxCell id="1" parent="0"/>
                <mxCell id="p3m_phone" value="" style="rounded=1;whiteSpace=wrap;html=1;strokeColor=#111827;fillColor=#FFFFFF;shadow=0;arcSize=10;" vertex="1" parent="1">
                    <mxGeometry x="60" y="60" width="375" height="812" as="geometry"/>
                </mxCell>
                <mxCell id="p3m_label" value="スマホ" style="whiteSpace=wrap;html=1;strokeColor=none;fillColor=none;" vertex="1" parent="1">
                    <mxGeometry x="60" y="36" width="200" height="20" as="geometry"/>
                </mxCell>
                <mxCell id="p3m_hero" value="" style="whiteSpace=wrap;html=1;strokeColor=#E5E7EB;fillColor=#F3F4F6;rounded=1;arcSize=6;" vertex="1" parent="1">
                    <mxGeometry x="72" y="80" width="350" height="160" as="geometry"/>
                </mxCell>
                <mxCell id="p3m_name" value="中央公園　★4.2（52）" style="whiteSpace=wrap;html=1;strokeColor=none;fillColor=none;" vertex="1" parent="1">
                    <mxGeometry x="72" y="246" width="350" height="24" as="geometry"/>
                </mxCell>
                <mxCell id="p3m_basic" value="住所：東京都○○区…　距離：420m　本日 09:00–18:00" style="whiteSpace=wrap;html=1;strokeColor=none;fillColor=none;" vertex="1" parent="1">
                    <mxGeometry x="72" y="274" width="350" height="24" as="geometry"/>
                </mxCell>
                <mxCell id="p3m_badge0" value="授乳室" style="rounded=1;whiteSpace=wrap;html=1;strokeColor=#D1E0FF;fillColor=#EEF4FF;fontSize=10;arcSize=50;" vertex="1" parent="1">
                    <mxGeometry x="72" y="304" width="112" height="22" as="geometry"/>
                </mxCell>
                <mxCell id="p3m_badge1" value="おむつ交換台" style="rounded=1;whiteSpace=wrap;html=1;strokeColor=#D1E0FF;fillColor=#EEF4FF;fontSize=10;arcSize=50;" vertex="1" parent="1">
                    <mxGeometry x="190" y="304" width="112" height="22" as="geometry"/>
                </mxCell>
                <mxCell id="p3m_badge2" value="キッズトイレ" style="rounded=1;whiteSpace=wrap;html=1;strokeColor=#D1E0FF;fillColor=#EEF4FF;fontSize=10;arcSize=50;" vertex="1" parent="1">
                    <mxGeometry x="308" y="304" width="112" height="22" as="geometry"/>
                </mxCell>
                <mxCell id="p3m_badge3" value="ベビーカーOK" style="rounded=1;whiteSpace=wrap;html=1;strokeColor=#D1E0FF;fillColor=#EEF4FF;fontSize=10;arcSize=50;" vertex="1" parent="1">
                    <mxGeometry x="72" y="330" width="112" height="22" as="geometry"/>
                </mxCell>
                <mxCell id="p3m_badge4" value="エレベーター" style="rounded=1;whiteSpace=wrap;html=1;strokeColor=#D1E0FF;fillColor=#EEF4FF;fontSize=10;arcSize=50;" vertex="1" parent="1">
                    <mxGeometry x="190" y="330" width="112" height="22" as="geometry"/>
                </mxCell>
                <mxCell id="p3m_badge5" value="キッズメニュー" style="rounded=1;whiteSpace=wrap;html=1;strokeColor=#D1E0FF;fillColor=#EEF4FF;fontSize=10;arcSize=50;" vertex="1" parent="1">
                    <mxGeometry x="308" y="330" width="112" height="22" as="geometry"/>
                </mxCell>
                <mxCell id="p3m_more" value="さらに詳しく ▼" style="rounded=1;whiteSpace=wrap;html=1;strokeColor=#60A5FA;fillColor=#EFF6FF;arcSize=12;fontColor=#1D4ED8;" vertex="1" parent="1">
                    <mxGeometry x="72" y="358" width="140" height="26" as="geometry"/>
                </mxCell>
                <mxCell id="p3m_details" value="・電話 / 公式サイト&amp;#xa;・営業時間（曜日別）&amp;#xa;・サービス詳細（表）&amp;#xa;・注意事項" style="rounded=1;whiteSpace=wrap;html=1;strokeColor=#E5E7EB;fillColor=#FFFFFF;shadow=0;arcSize=6;" vertex="1" parent="1">
                    <mxGeometry x="72" y="388" width="350" height="130" as="geometry"/>
                </mxCell>
                <mxCell id="p3m_rev_head" value="レビュー　並び替え：新着 | 役に立った | 写真あり" style="whiteSpace=wrap;html=1;strokeColor=none;fillColor=none;" vertex="1" parent="1">
                    <mxGeometry x="72" y="528" width="350" height="22" as="geometry"/>
                </mxCell>
                <mxCell id="p3m_rev0" value="" style="rounded=1;whiteSpace=wrap;html=1;strokeColor=#E5E7EB;fillColor=#FFFFFF;shadow=0;arcSize=6;" vertex="1" parent="1">
                    <mxGeometry x="72" y="556" width="350" height="84" as="geometry"/>
                </mxCell>
                <mxCell id="p3m_rev0h" value="たいろー（2-3歳）　滞在90分　再訪5" style="whiteSpace=wrap;html=1;strokeColor=none;fillColor=none;" vertex="1" parent="1">
                    <mxGeometry x="80" y="564" width="334" height="20" as="geometry"/>
                </mxCell>
                <mxCell id="p3m_rev0t" value="授乳室が広くて助かりました（清潔さ4 / おむつ5 / ベビーカー4）" style="whiteSpace=wrap;html=1;strokeColor=none;fillColor=none;" vertex="1" parent="1">
                    <mxGeometry x="80" y="586" width="334" height="40" as="geometry"/>
                </mxCell>
                <mxCell id="p3m_rev1" value="" style="rounded=1;whiteSpace=wrap;html=1;strokeColor=#E5E7EB;fillColor=#FFFFFF;shadow=0;arcSize=6;" vertex="1" parent="1">
                    <mxGeometry x="72" y="652" width="350" height="84" as="geometry"/>
                </mxCell>
                <mxCell id="p3m_rev1h" value="たいろー（2-3歳）　滞在90分　再訪5" style="whiteSpace=wrap;html=1;strokeColor=none;fillColor=none;" vertex="1" parent="1">
                    <mxGeometry x="80" y="660" width="334" height="20" as="geometry"/>
                </mxCell>
                <mxCell id="p3m_rev1t" value="授乳室が広くて助かりました（清潔さ4 / おむつ5 / ベビーカー4）" style="whiteSpace=wrap;html=1;strokeColor=none;fillColor=none;" vertex="1" parent="1">
                    <mxGeometry x="80" y="682" width="334" height="40" as="geometry"/>
                </mxCell>
                <mxCell id="p3d_desktop" value="" style="rounded=1;whiteSpace=wrap;html=1;strokeColor=#111827;fillColor=#FFFFFF;shadow=0;arcSize=10;" vertex="1" parent="1">
                    <mxGeometry x="500" y="60" width="1000" height="700" as="geometry"/>
                </mxCell>
                <mxCell id="p3d_label" value="PC" style="whiteSpace=wrap;html=1;strokeColor=none;fillColor=none;" vertex="1" parent="1">
                    <mxGeometry x="500" y="36" width="200" height="20" as="geometry"/>
                </mxCell>
                <mxCell id="p3d_gallery" value="" style="whiteSpace=wrap;html=1;strokeColor=#E5E7EB;fillColor=#F3F4F6;rounded=1;arcSize=6;" vertex="1" parent="1">
                    <mxGeometry x="512" y="80" width="620" height="340" as="geometry"/>
                </mxCell>
                <mxCell id="p3d_name" value="中央公園　★4.2（52）" style="whiteSpace=wrap;html=1;strokeColor=none;fillColor=none;" vertex="1" parent="1">
                    <mxGeometry x="1140" y="80" width="348" height="24" as="geometry"/>
                </mxCell>
                <mxCell id="p3d_basic" value="住所：東京都○○区…　距離：420m　本日 09:00–18:00" style="whiteSpace=wrap;html=1;strokeColor=none;fillColor=none;" vertex="1" parent="1">
                    <mxGeometry x="1140" y="108" width="348" height="24" as="geometry"/>
                </mxCell>
                <mxCell id="p3d_badge0" value="授乳室" style="rounded=1;whiteSpace=wrap;html=1;strokeColor=#D1E0FF;fillColor=#EEF4FF;fontSize=10;arcSize=50;" vertex="1" parent="1">
                    <mxGeometry x="1140" y="140" width="160" height="22" as="geometry"/>
                </mxCell>
                <mxCell id="p3d_badge1" value="おむつ交換台" style="rounded=1;whiteSpace=wrap;html=1;strokeColor=#D1E0FF;fillColor=#EEF4FF;fontSize=10;arcSize=50;" vertex="1" parent="1">
                    <mxGeometry x="1310" y="140" width="160" height="22" as="geometry"/>
                </mxCell>
                <mxCell id="p3d_badge2" value="キッズトイレ" style="rounded=1;whiteSpace=wrap;html=1;strokeColor=#D1E0FF;fillColor=#EEF4FF;fontSize=10;arcSize=50;" vertex="1" parent="1">
                    <mxGeometry x="1140" y="166" width="160" height="22" as="geometry"/>
                </mxCell>
                <mxCell id="p3d_badge3" value="ベビーカーOK" style="rounded=1;whiteSpace=wrap;html=1;strokeColor=#D1E0FF;fillColor=#EEF4FF;fontSize=10;arcSize=50;" vertex="1" parent="1">
                    <mxGeometry x="1310" y="166" width="160" height="22" as="geometry"/>
                </mxCell>
                <mxCell id="p3d_badge4" value="エレベーター" style="rounded=1;whiteSpace=wrap;html=1;strokeColor=#D1E0FF;fillColor=#EEF4FF;fontSize=10;arcSize=50;" vertex="1" parent="1">
                    <mxGeometry x="1140" y="192" width="160" height="22" as="geometry"/>
                </mxCell>
                <mxCell id="p3d_badge5" value="キッズメニュー" style="rounded=1;whiteSpace=wrap;html=1;strokeColor=#D1E0FF;fillColor=#EEF4FF;fontSize=10;arcSize=50;" vertex="1" parent="1">
                    <mxGeometry x="1310" y="192" width="160" height="22" as="geometry"/>
                </mxCell>
                <mxCell id="p3d_details" value="・電話 / 公式サイト&amp;#xa;・営業時間（曜日別）&amp;#xa;・サービス詳細（表）&amp;#xa;・注意事項" style="rounded=1;whiteSpace=wrap;html=1;strokeColor=#E5E7EB;fillColor=#FFFFFF;shadow=0;arcSize=6;" vertex="1" parent="1">
                    <mxGeometry x="512" y="430" width="976" height="140" as="geometry"/>
                </mxCell>
                <mxCell id="p3d_rev_head" value="レビュー（新着 / 役に立った / 写真あり）" style="whiteSpace=wrap;html=1;strokeColor=none;fillColor=none;" vertex="1" parent="1">
                    <mxGeometry x="512" y="580" width="976" height="22" as="geometry"/>
                </mxCell>
                <mxCell id="p3d_rev0" value="" style="rounded=1;whiteSpace=wrap;html=1;strokeColor=#E5E7EB;fillColor=#FFFFFF;shadow=0;arcSize=6;" vertex="1" parent="1">
                    <mxGeometry x="512" y="606" width="976" height="84" as="geometry"/>
                </mxCell>
                <mxCell id="p3d_rev0h" value="たいろー（2-3歳）　滞在90分　再訪5" style="whiteSpace=wrap;html=1;strokeColor=none;fillColor=none;" vertex="1" parent="1">
                    <mxGeometry x="520" y="614" width="960" height="20" as="geometry"/>
                </mxCell>
                <mxCell id="p3d_rev0t" value="授乳室が広くて助かりました（清潔さ4 / おむつ5 / ベビーカー4）" style="whiteSpace=wrap;html=1;strokeColor=none;fillColor=none;" vertex="1" parent="1">
                    <mxGeometry x="520" y="636" width="960" height="40" as="geometry"/>
                </mxCell>
                <mxCell id="p3d_rev1" value="" style="rounded=1;whiteSpace=wrap;html=1;strokeColor=#E5E7EB;fillColor=#FFFFFF;shadow=0;arcSize=6;" vertex="1" parent="1">
                    <mxGeometry x="512" y="702" width="976" height="84" as="geometry"/>
                </mxCell>
                <mxCell id="p3d_rev1h" value="たいろー（2-3歳）　滞在90分　再訪5" style="whiteSpace=wrap;html=1;strokeColor=none;fillColor=none;" vertex="1" parent="1">
                    <mxGeometry x="520" y="710" width="960" height="20" as="geometry"/>
                </mxCell>
                <mxCell id="p3d_rev1t" value="授乳室が広くて助かりました（清潔さ4 / おむつ5 / ベビーカー4）" style="whiteSpace=wrap;html=1;strokeColor=none;fillColor=none;" vertex="1" parent="1">
                    <mxGeometry x="520" y="732" width="960" height="40" as="geometry"/>
                </mxCell>
            </root>
        </mxGraphModel>
    </diagram>
    <diagram name="04_レビュー投稿（スマホ＋PC）" id="04_レビュー投稿（スマホ＋PC）">
        <mxGraphModel dx="1386" dy="779" grid="1" gridSize="10" guides="1" tooltips="1" connect="1" arrows="1" fold="1" page="1" pageScale="1" pageWidth="1654" pageHeight="1169" math="0" shadow="0">
            <root>
                <mxCell id="0"/>
                <mxCell id="1" parent="0"/>
                <mxCell id="p4m_phone" value="" style="rounded=1;whiteSpace=wrap;html=1;strokeColor=#111827;fillColor=#FFFFFF;shadow=0;arcSize=10;" parent="1" vertex="1">
                    <mxGeometry x="60" y="60" width="375" height="812" as="geometry"/>
                </mxCell>
                <mxCell id="p4m_label" value="スマホ" style="whiteSpace=wrap;html=1;strokeColor=none;fillColor=none;" parent="1" vertex="1">
                    <mxGeometry x="60" y="36" width="200" height="20" as="geometry"/>
                </mxCell>
                <mxCell id="p4m_overall" value="総合評価（★1〜5）" style="rounded=1;whiteSpace=wrap;html=1;strokeColor=#E5E7EB;fillColor=#FFFFFF;shadow=0;arcSize=6;" parent="1" vertex="1">
                    <mxGeometry x="72" y="80" width="350" height="56" as="geometry"/>
                </mxCell>
                <mxCell id="p4m_age" value="年齢帯（任意）" style="rounded=1;whiteSpace=wrap;html=1;strokeColor=#E5E7EB;fillColor=#FFFFFF;shadow=0;arcSize=6;" parent="1" vertex="1">
                    <mxGeometry x="72" y="142" width="350" height="48" as="geometry"/>
                </mxCell>
                <mxCell id="p4m_stay" value="滞在時間（分）" style="rounded=1;whiteSpace=wrap;html=1;strokeColor=#E5E7EB;fillColor=#FFFFFF;shadow=0;arcSize=6;" parent="1" vertex="1">
                    <mxGeometry x="72" y="194" width="350" height="48" as="geometry"/>
                </mxCell>
                <mxCell id="p4m_revisit" value="再訪意向（1〜5）" style="rounded=1;whiteSpace=wrap;html=1;strokeColor=#E5E7EB;fillColor=#FFFFFF;shadow=0;arcSize=6;" parent="1" vertex="1">
                    <mxGeometry x="72" y="246" width="350" height="48" as="geometry"/>
                </mxCell>
                <mxCell id="p4m_text" value="本文（最大2000文字）" style="rounded=1;whiteSpace=wrap;html=1;strokeColor=#E5E7EB;fillColor=#FFFFFF;shadow=0;arcSize=6;" parent="1" vertex="1">
                    <mxGeometry x="72" y="300" width="350" height="140" as="geometry"/>
                </mxCell>
                <mxCell id="p4m_axes" value="評価軸（清潔さ／授乳室／おむつ交換／ベビーカー移動／キッズメニュー）" style="rounded=1;whiteSpace=wrap;html=1;strokeColor=#E5E7EB;fillColor=#FFFFFF;shadow=0;arcSize=6;" parent="1" vertex="1">
                    <mxGeometry x="72" y="446" width="350" height="84" as="geometry"/>
                </mxCell>
                <mxCell id="p4m_photos" value="写真（最大5枚）" style="rounded=1;whiteSpace=wrap;html=1;strokeColor=#E5E7EB;fillColor=#FFFFFF;shadow=0;arcSize=6;" parent="1" vertex="1">
                    <mxGeometry x="72" y="536" width="350" height="84" as="geometry"/>
                </mxCell>
                <mxCell id="p4m_submit" value="レビューを投稿する" style="rounded=1;whiteSpace=wrap;html=1;strokeColor=#60A5FA;fillColor=#EFF6FF;arcSize=12;fontColor=#1D4ED8;" parent="1" vertex="1">
                    <mxGeometry x="72" y="630" width="350" height="44" as="geometry"/>
                </mxCell>
                <mxCell id="p4d_desktop" value="" style="rounded=1;whiteSpace=wrap;html=1;strokeColor=#111827;fillColor=#FFFFFF;shadow=0;arcSize=10;" parent="1" vertex="1">
                    <mxGeometry x="500" y="60" width="1000" height="700" as="geometry"/>
                </mxCell>
                <mxCell id="p4d_label" value="PC" style="whiteSpace=wrap;html=1;strokeColor=none;fillColor=none;" parent="1" vertex="1">
                    <mxGeometry x="500" y="36" width="200" height="20" as="geometry"/>
                </mxCell>
                <mxCell id="p4d_overall" value="総合評価（★1〜5）" style="rounded=1;whiteSpace=wrap;html=1;strokeColor=#E5E7EB;fillColor=#FFFFFF;shadow=0;arcSize=6;" parent="1" vertex="1">
                    <mxGeometry x="512" y="80" width="488" height="56" as="geometry"/>
                </mxCell>
                <mxCell id="p4d_age" value="年齢帯（任意）" style="rounded=1;whiteSpace=wrap;html=1;strokeColor=#E5E7EB;fillColor=#FFFFFF;shadow=0;arcSize=6;" parent="1" vertex="1">
                    <mxGeometry x="1000" y="80" width="488" height="56" as="geometry"/>
                </mxCell>
                <mxCell id="p4d_stay" value="滞在時間（分）" style="rounded=1;whiteSpace=wrap;html=1;strokeColor=#E5E7EB;fillColor=#FFFFFF;shadow=0;arcSize=6;" parent="1" vertex="1">
                    <mxGeometry x="512" y="142" width="488" height="48" as="geometry"/>
                </mxCell>
                <mxCell id="p4d_revisit" value="再訪意向（1〜5）" style="rounded=1;whiteSpace=wrap;html=1;strokeColor=#E5E7EB;fillColor=#FFFFFF;shadow=0;arcSize=6;" parent="1" vertex="1">
                    <mxGeometry x="1000" y="142" width="488" height="48" as="geometry"/>
                </mxCell>
                <mxCell id="p4d_text" value="本文（最大2000文字）" style="rounded=1;whiteSpace=wrap;html=1;strokeColor=#E5E7EB;fillColor=#FFFFFF;shadow=0;arcSize=6;" parent="1" vertex="1">
                    <mxGeometry x="512" y="200" width="976" height="200" as="geometry"/>
                </mxCell>
                <mxCell id="p4d_axes" value="評価軸（清潔さ／授乳室／おむつ交換／ベビーカー移動／キッズメニュー）" style="rounded=1;whiteSpace=wrap;html=1;strokeColor=#E5E7EB;fillColor=#FFFFFF;shadow=0;arcSize=6;" parent="1" vertex="1">
                    <mxGeometry x="512" y="406" width="976" height="84" as="geometry"/>
                </mxCell>
                <mxCell id="p4d_photos" value="写真（最大5枚）" style="rounded=1;whiteSpace=wrap;html=1;strokeColor=#E5E7EB;fillColor=#FFFFFF;shadow=0;arcSize=6;" parent="1" vertex="1">
                    <mxGeometry x="512" y="496" width="976" height="84" as="geometry"/>
                </mxCell>
                <mxCell id="p4d_submit" value="レビューを投稿する" style="rounded=1;whiteSpace=wrap;html=1;strokeColor=#60A5FA;fillColor=#EFF6FF;arcSize=12;fontColor=#1D4ED8;" parent="1" vertex="1">
                    <mxGeometry x="512" y="586" width="976" height="44" as="geometry"/>
                </mxCell>
            </root>
        </mxGraphModel>
    </diagram>
</mxfile>